<svg xmlns="http://www.w3.org/2000/svg" width="418.805" height="10.238" viewBox="0 0 418.805 10.238"><path d="M1188.343,296.214l6.193,6.254m-9.813-6.263,6.2,6.243m-9.821-6.249,6.211,6.236m-9.829-6.238,6.218,6.229m-9.835-6.229,6.222,6.225m-9.839-6.224,6.226,6.222m-9.84-6.22,6.227,6.22m-9.844-6.215,6.231,6.216m-9.847-6.211,6.232,6.215m-9.847-6.209,6.233,6.215m-9.849-6.208,6.236,6.213m-9.851-6.2,6.236,6.209m-9.853-6.2,6.238,6.209m-9.853-6.2,6.238,6.208m-9.853-6.2,6.24,6.208m-9.856-6.2,6.241,6.207m-9.856-6.2,6.241,6.206m-9.856-6.2,6.241,6.208m-9.856-6.2,6.241,6.206m-9.858-6.195,6.243,6.206m-9.858-6.195,6.243,6.206m-9.858-6.193,6.243,6.2m-9.858-6.193,6.243,6.2m-9.858-6.193,6.241,6.2m-9.856-6.193,6.242,6.206m-9.856-6.195,6.242,6.206m-9.858-6.193,6.243,6.2m-9.858-6.193,6.243,6.2m-9.858-6.193,6.243,6.2m-9.858-6.193,6.243,6.2m-9.858-6.195,6.241,6.206m-9.856-6.2,6.241,6.206m-9.856-6.195,6.241,6.206m-9.856-6.2,6.241,6.208m-9.856-6.2,6.241,6.208m-9.856-6.2,6.24,6.208m-9.854-6.2,6.24,6.208m-9.854-6.2,6.24,6.208m-9.854-6.2,6.238,6.209m-9.853-6.2,6.238,6.209m-9.853-6.2,6.238,6.211m-9.851-6.206,6.234,6.213m-9.849-6.206,6.234,6.213m-9.849-6.207,6.234,6.213m-9.849-6.208,6.232,6.215m-9.845-6.211,6.231,6.216m-9.845-6.213,6.229,6.216m-9.844-6.215,6.229,6.218m-9.844-6.216,6.227,6.22m-9.84-6.22,6.224,6.222m-9.838-6.224,6.224,6.225m-9.837-6.227,6.22,6.227m-9.835-6.231,6.218,6.229m-9.831-6.234,6.215,6.231m-9.828-6.238,6.211,6.234m-9.824-6.245,6.208,6.24m-9.82-6.251,6.2,6.242M982.29,296.5l6.2,6.247m-9.812-6.265,6.195,6.252m-9.806-6.276,6.188,6.26m-9.8-6.286,6.181,6.267m-9.788-6.3,6.17,6.276m-9.777-6.317,6.157,6.29m-9.761-6.342,6.139,6.306m-9.725-6.387,6.1,6.344m-9.709-6.437,6.073,6.378m-9.684-6.478,6.055,6.39m-9.668-6.491,6.05,6.394m-9.661-6.5,6.044,6.4m-9.657-6.5,6.043,6.4m-9.656-6.5,6.041,6.4m-9.654-6.505,6.041,6.4m-9.656-6.507,6.041,6.4m-9.654-6.505,6.041,6.4m-9.654-6.507,6.041,6.4m-9.656-6.507,6.041,6.4m-9.654-6.507,6.041,6.4m-9.654-6.505,6.041,6.4m-9.656-6.505,6.042,6.4m-9.656-6.5,6.041,6.4m-9.656-6.5,6.042,6.4m-9.656-6.5,6.043,6.4m-9.657-6.5,6.044,6.4m-9.659-6.5,6.046,6.4m-9.661-6.5,6.048,6.394m-9.661-6.494,6.048,6.394m-9.663-6.493,6.05,6.392m-9.666-6.491,6.053,6.39m-9.668-6.485,6.055,6.387m-9.67-6.482,6.059,6.385m-9.675-6.476,6.062,6.381m-9.679-6.471,6.068,6.378m-9.686-6.464,6.073,6.372m-9.691-6.453,6.08,6.365m-9.7-6.439,6.091,6.355M845,293.2l6.111,6.337m-9.756-6.369,6.148,6.3m-9.763-6.32,6.166,6.263m-9.781-6.283,6.188,6.258m-9.8-6.277,6.188,6.258m-9.8-6.277,6.19,6.258m-9.819-6.263,6.2,6.243m-9.819-6.247,6.22,6.229m-9.835-6.231,6.218,6.227m-9.835-6.229,6.22,6.227m-9.842-6.229,6.227,6.227m-9.842-6.222,6.227,6.218m-9.842-6.213L807.8,299.3m-9.849-6.209,6.234,6.215m-9.849-6.209,6.233,6.215m-9.846-6.209,6.231,6.215m-9.847-6.211,6.233,6.216m-9.847-6.213,6.231,6.218m-9.846-6.213,6.231,6.216m-9.846-6.213,6.231,6.216" transform="translate(-775.997 -292.807)" fill="none" stroke="#2b4c47" stroke-width="0.748"/></svg>