<?xml version="1.0" encoding="utf-8"?>
<!-- Generator: Adobe Illustrator 23.1.0, SVG Export Plug-In . SVG Version: 6.00 Build 0)  -->
<svg version="1.1" id="Layer_1" xmlns="http://www.w3.org/2000/svg" xmlns:xlink="http://www.w3.org/1999/xlink" x="0px" y="0px"
	 viewBox="0 0 404 98.6" style="enable-background:new 0 0 404 98.6;" xml:space="preserve">
<style type="text/css">
	.st0{fill:#4C8343;}
</style>
<g id="yen">
	<path class="st0" d="M350,55.8c0-0.1-0.1-0.2-0.2-0.2c3.5-9.2,7-19.5,10.8-31c0.9-2.7,1.8-5.1,2.9-7.1v-0.2c0-0.2-0.1-0.4-0.4-0.4
		h-0.4l-1.3,1.2c0,1.1-2,4.7-6,11c-14.2,21.8-24,32.7-29.4,32.7h-1.3l-1.3-0.2c-2.1-1.3-3.1-4.3-3.1-8.8v-1.9
		c0-6.5,1.5-15.2,4.6-26.2c-0.1-0.3-0.2-0.4-0.2-0.6H324l-0.4,0.2c-3.3,12-5,21.2-5,27.5l0.4,3.8c0.9,5.1,2.9,7.7,6.2,7.7
		c5.1,0,13-7.5,23.8-22.5c5.9-8.9,8.9-13.5,9.2-13.7c0,0.3-0.6,2.5-1.9,6.5c-5.5,15.9-8.7,24.5-9.6,25.6
		c-12.3,11.4-18.5,19.6-18.5,24.6c0.3,2.7,1.2,4,2.9,4c1.8-0.2,2.7-0.5,2.7-1c2.8-0.6,7.7-9.9,14.6-27.7l4.8-5l-0.8-0.6
		C351,55.1,350.1,55.8,350,55.8z M331.5,86.5h-0.8c-0.8-0.4-1.2-1.2-1.2-2.3v-0.4c0-4.7,5.4-12,16.2-21.9c0,0.1,0.1,0.2,0.2,0.2
		C339.7,78.4,334.9,86.5,331.5,86.5z"/>
	<path class="st0" d="M358.8,43.2c0.7-0.6,2-2.6,4-5.9c0.5-0.9,0.8-1.4,1-1.8c0.1,0.5,0.5,1.7,1.2,3.6c1,2.7,1.7,4.2,1.9,4.5h0.3
		c0.3,0,0.5-0.1,0.5-0.5c-2-5.5-3-8.6-3.2-9.3c0.1-0.4,0.1-0.6,0.1-0.8c-0.2-0.4-0.4-0.7-0.7-0.8h-0.2c-0.4,0.1-0.6,0.4-0.7,0.8
		c0.1,0.4,0.1,0.6,0.1,0.8c-1.1,2.5-2.9,5.5-5.3,8.8c0.1,0.2,0.1,0.4,0.1,0.6H358.8z"/>
	<path class="st0" d="M381.9,47.9h-0.6c-2.5,3.6-4.3,5.4-5.4,5.4h-0.4v-1.2c0-0.6,0.2-2,0.6-4c0-0.5-0.3-1-1-1.3h-0.6
		c-1,0-2.4,1.2-4.2,3.7h-0.6c0-0.3,0.1-0.7,0.2-1.3c0-0.1,0.1-0.1,0.1-0.2c0-0.1,0-0.2,0-0.3c0-0.2,0.1-0.4,0.1-0.6
		c0-0.4-0.1-0.6-0.4-0.6h-0.4c-0.2,0-0.4,0.6-0.8,1.8c-2.2,3.2-4.3,4.8-6.1,4.8h-2.1c-0.5-0.3-0.9-0.6-1.2-1.2v-0.6
		c0-0.3,0.1-0.9,0.4-1.7c3.3-1.1,5-1.9,5-2.5v-0.6c-0.3-0.6-0.8-1-1.5-1h-0.2c-2.3,0-4,1.9-5,5.8c0,1.9,1.3,2.9,3.8,3.3
		c2,0,4.1-1.3,6.2-3.9c-0.2,0.8-0.4,1.7-0.6,2.7c0,0.3,0.1,0.4,0.4,0.4h0.4c2.8-3.7,4.8-6,6-6.7h0.6c-0.4,2.5-0.6,3.9-0.6,4.4
		c0,1,0.4,1.7,1.2,2.1h0.8c2-0.5,3.9-2.7,6-6.3C381.9,48.3,381.9,48.2,381.9,47.9z M362.1,48l1,0l-1.3,0.8l-1.2,0.7
		C360.9,48.6,361.4,48.1,362.1,48z"/>
</g>
<g id="tron">
	<path class="st0" d="M192.1,16.8h-0.2c-5.4,0.5-19.8,2.7-43.3,6.5l-0.8-0.8h-0.4c-0.3,0-0.5,0.3-0.6,1l-49,8.5v0.8
		c0.1,0,0.3,0.1,0.6,0.2c17.4-2.9,33.3-5.6,47.7-7.9h0.2c-7.3,27.3-11.5,43.6-12.7,49c0,0.2,0.3,0.4,0.8,0.6c0.4-0.3,0.8-1,1.2-2.1
		c-0.1-0.3-0.2-0.5-0.2-0.6c2.6-10.8,6.7-26.5,12.5-47.1c16.1-2.8,29.7-5.1,40.8-6.7l1,0.4c1.9-0.4,2.9-0.8,2.9-1.2v-0.2
		C192.5,17,192.4,16.9,192.1,16.8z"/>
	<path class="st0" d="M187,47.9h-0.6c-2.5,3.6-4.3,5.4-5.4,5.4h-0.4v-1.2c0-0.6,0.2-2,0.6-4c0-0.5-0.3-1-1-1.3h-0.6
		c-1,0-2.4,1.2-4.2,3.7h-0.6c0-0.4,0.1-1.2,0.4-2.3c0-0.4-0.1-0.6-0.4-0.6h-0.4c-0.1,0-0.3,0.3-0.4,0.8c-2.3,1.5-3.9,2.3-4.9,2.3
		H169c-0.3-2.4-1.3-3.7-3.3-3.7c-0.8,0-1.6,0.4-2.2,1.2c0,0,0,0,0,0h-0.2c-2.6,4.5-4.6,6.7-6,6.7h-0.8c-0.4-0.2-0.6-0.4-0.6-0.6
		v-1.3c0-0.9,0.5-2.8,1.5-5.6v-0.2c0-0.2-0.1-0.4-0.4-0.4c-1.7,0.4-2.9,0.6-3.7,0.6H153c-0.6-2.3-1.3-3.5-2.3-3.5
		c-0.5,0-0.9,0.3-1.2,0.8v0.8c0,0.6,0.5,1.5,1.5,2.5l-0.7,1.6c0.1,0,0.3,0.7,0.5,0.8c0.5-0.4,1.5-1.9,1.5-2l1.2,0.2
		c1.1-0.1,1.8-0.2,2.1-0.2h0.2v0.2c-0.6,2.7-1,4.3-1,4.8v0.4c0.1,1.5,0.8,2.3,1.9,2.3c0.6,0,1-0.1,1.2-0.2c1.6-0.8,2.9-2,4-3.5
		c0,0.1-0.1,0.3-0.1,0.4c0,1.8,0.8,2.9,2.5,3.3c1.3,0,2.6-1.2,3.8-3.5c2.4-0.9,4.2-1.7,5.3-2.4c-0.3,1.1-0.6,2.5-1,4.4
		c0,0.3,0.1,0.4,0.4,0.4h0.4c2.8-3.7,4.8-6,6-6.7h0.6c-0.4,2.5-0.6,3.9-0.6,4.4c0,1,0.4,1.7,1.2,2.1h0.8c2-0.5,3.9-2.7,6-6.3
		C187.1,48.3,187,48.2,187,47.9z M151.4,46.4h-0.2c-0.4-0.2-0.6-0.4-0.6-0.6v-0.6h0.2c0.4,0.2,0.6,0.4,0.6,0.6V46.4z M164.6,54.5
		H164c-0.4-0.2-0.6-0.7-0.7-1.5c-0.1-0.8,0.1-1.8,0.7-3c1.4,1.1,2.4,1.7,3.1,1.9C166.5,53.6,165.7,54.5,164.6,54.5z M167.7,50.6
		c-1.3,0-2.1-0.6-2.3-1.7v-0.4c1.1-0.4,1.9,0.1,2.3,1.5V50.6z"/>
	<path class="st0" d="M164.1,60.8c-0.1,0-0.1-0.1-0.2-0.1c-0.1,0-0.1,0-0.2,0c-0.1,0-0.1,0-0.2,0.1c-0.1,0.1-0.2,0.2-0.3,0.3
		c-0.1,0.1-0.2,0.2-0.3,0.3c-0.1,0.1-0.1,0.2-0.1,0.2c0,0.2,0.1,0.3,0.2,0.3c0.3,0.2,0.5,0.3,0.6,0.3c0.1,0,0.2,0.1,0.2,0.1
		c0,0,0.1,0,0.2-0.1c0.1-0.1,0.2-0.1,0.3-0.2c0.1-0.1,0.2-0.2,0.3-0.3c0.1-0.1,0.1-0.2,0.1-0.3c0,0,0-0.1-0.1-0.2
		C164.5,61.1,164.3,61,164.1,60.8z"/>
</g>
<g id="binh">
	<path class="st0" d="M249.3,43.8v-0.6c6-4.3,9-8.6,9-12.9c0-4.7-3.3-7.4-9.8-8.1c-3.1,0-7.9,1.1-14.2,3.3h-0.2
		c0-0.4,0.3-1.7,0.8-3.8c0-0.2-0.1-0.4-0.4-0.4h-0.4c-0.3,0-0.5,0.5-0.8,1.5c-0.3,2.7-1.1,4-2.5,4c-7.8,3.6-16.6,9.2-26.5,16.9
		c-6.5,5.6-10.2,9.3-11.2,11l0.8,0.6l3.3-2.3l-0.2-1l0.2-0.4c6.1-5.8,11.6-10.3,16.5-13.7c7.7-5.2,13.7-8.5,18.1-10h0.2
		c0,0.5-1.7,7.2-5,20.2c-2.6,1.3-3.8,2.1-3.8,2.3v0.4c0.2,0.4,0.4,0.6,0.6,0.6l2.3-0.2c0,0.1,0.1,0.3,0.2,0.6
		c-0.1,0.2-2.8,10.8-8.1,31.7c0.1,0.4,0.4,0.7,0.8,0.8c0-0.1,0.1-0.2,0.2-0.2c0.3-0.2,3.1-11.2,8.5-33.1l11.7-2.9
		c4.4-2,7.4-3.1,9-3.1c3.4,0,6.3,0.3,8.8,1c6.3,2,9.4,5.8,9.4,11.5c0,4.2-1.7,8.2-5.2,12.1c-7.2,5.6-13.9,8.5-20.2,8.5h-2.3
		c-2.9-0.4-4.4-1.7-4.4-3.8V74c0-4.5,4.1-8.5,12.3-11.9h0.6l0.4,0.2c1.3-0.9,1.9-1.5,1.9-1.9l-0.8-0.6c-10.5,4.2-15.8,8.9-15.8,14.2
		c0,0.5,0.1,1.2,0.4,2.1c1.3,2.4,3.6,3.7,6.9,3.7c2.6,0,6.3-0.9,11.3-2.7c10.6-5,16-11.3,16-19c0-0.8-0.2-2.2-0.6-4.2
		C264.8,47.1,258.9,43.8,249.3,43.8z M240.1,46.5c-5.5,1.8-8.9,2.7-10.4,2.7V49c5-1.8,8.2-2.7,9.8-2.7h0.6V46.5z M246.4,43.8
		c-3,0-8.9,1.3-17.7,4h-0.2c0-0.6,1.7-7.4,5-20.6c5.5-2.2,10.1-3.4,13.7-3.5h2.5c3.9,0,6.3,1.8,7.1,5.4v2.3
		C256.8,35.2,253.3,39.3,246.4,43.8z"/>
	<path class="st0" d="M275.7,44.1h0.2c0.2,0,0.6-0.5,1.3-1.5v-0.4c0-0.2-0.1-0.4-0.4-0.4h-0.6c-0.9,0.5-1.3,0.8-1.3,1
		C274.9,43.5,275.2,43.9,275.7,44.1z"/>
	<path class="st0" d="M309.9,48.2h-0.2c-2.7,3.6-4.9,5.4-6.5,5.4h-0.4c-0.4-0.2-0.6-0.4-0.6-0.6v-1.2c0-0.6,0.3-1.9,0.8-4
		c0-0.6-0.4-1.1-1.2-1.3c-1.5,0-3.7,2.2-6.7,6.5h-0.2l6.7-29.4c1.7-5.4,2.5-8.6,2.5-9.4V14c0-0.2-0.1-0.4-0.4-0.4h-0.2l-0.4,0.2
		c-2.3,8.7-5,20.1-8.3,34.2h0c-2.5,3.6-4.3,5.4-5.4,5.4h-0.4v-1.2c0-0.6,0.2-2,0.6-4c0-0.5-0.3-1-1-1.3h-0.6c-1,0-2.4,1.2-4.2,3.7
		h-0.6c0-0.4,0.1-1.2,0.4-2.3c0-0.4-0.1-0.6-0.4-0.6H283c-0.1,0-0.3,0.4-0.6,1.1c-4,4.7-6.7,7-8.2,7h-0.8V54c0-1.4,0.6-3.8,1.7-7.1
		c-0.1-0.3-0.2-0.4-0.2-0.6h-0.6c-0.6,0-1.3,2.8-2.3,8.3c0,1.3,0.4,2.1,1.2,2.5h0.2c2.4,0,5.2-2,8.4-6c-0.2,1-0.5,2.1-0.7,3.5
		c0,0.3,0.1,0.4,0.4,0.4h0.4c2.8-3.7,4.8-6,6-6.7h0.6c-0.4,2.5-0.6,3.9-0.6,4.4c0,1,0.4,1.7,1.2,2.1h0.8c1.5-0.4,3.1-1.8,4.6-4.1
		c-0.6,2.5-1.1,5-1.7,7.6c0,0.4,0.1,0.6,0.4,0.6h0.2c0.2,0,0.7-0.8,1.3-2.3c1.6-3.5,3.8-6.4,6.5-8.7h0.8l-0.8,4.4v0.2
		c0.1,1.5,0.8,2.3,2.1,2.3c2.1,0,4.5-2,7.1-6v-0.2C310.3,48.3,310.1,48.2,309.9,48.2z"/>
	<path class="st0" d="M279.4,40.7c0.4,0.3,0.7,0.6,1.1,0.8c0.4,0.2,0.6,0.4,0.8,0.4c0.1,0,0.2,0,0.4-0.1c0.2,0,0.3-0.1,0.3-0.2
		c0-0.1-0.1-0.2-0.2-0.3c-0.1-0.2-0.4-0.5-0.9-1c-0.5-0.5-0.9-1.2-1.1-1.9c-0.1-0.2-0.2-0.3-0.3-0.3c-0.1-0.1-0.3-0.1-0.6-0.1
		c-0.1,0-0.2,0-0.3,0.1c-0.1,0.1-0.2,0.2-0.3,0.2c-0.1,0.1-0.2,0.2-0.2,0.3s-0.1,0.2-0.1,0.3c0,0.2,0.1,0.4,0.4,0.8
		C278.7,40,279,40.4,279.4,40.7z"/>
</g>
<g id="song">
	<path class="st0" d="M67.1,15.7c-4.6,0-10.5,2.2-17.9,6.7c-8.7,7-13.1,13.1-13.1,18.5c0,5,4.9,7.5,14.6,7.5l11.3-0.2
		c4.6,0,6.9,0.7,6.9,2.1v1.3c-0.2,2.2-2.2,4.8-6.2,7.9c-10.6,6.8-21,10.2-31.2,10.2c-5.8,0-8.7-0.8-8.7-2.5v-0.8
		c2.2-2.6,6.1-5.3,11.7-8.1c7-3.1,10.5-4.8,10.8-5.2V53c0-0.2-0.1-0.4-0.4-0.4h-1C29.7,59.2,22.2,64,22,67.1v0.6
		c0.9,2.3,4.1,3.5,9.6,3.5h0.2c4.2,0,9.5-0.9,16-2.7C63,62.5,70.6,56.6,70.6,50.7c0-2.6-2.8-3.8-8.3-3.8H49.1
		c-7.7,0-11.5-1.8-11.5-5.4v-0.6c0-3.9,2.8-8.7,8.3-14.2c8.3-6.3,14.9-9.4,19.8-9.4h2.7c2.1,0,3.3,1.3,3.8,4v1.3
		c0,2.9-1.7,6.9-5.2,12.1l0.8,0.6c3.8-5.2,5.8-9.5,5.8-12.7v-0.6C73.5,18.4,71.4,16.3,67.1,15.7z"/>
	<path class="st0" d="M80,37.6c0.5-0.9,0.8-1.4,1-1.8c0.1,0.5,0.5,1.7,1.2,3.6c1,2.7,1.7,4.2,1.9,4.5h0.3c0.3,0,0.5-0.1,0.5-0.5
		c-2-5.5-3-8.6-3.2-9.3c0.1-0.4,0.1-0.6,0.1-0.8c-0.2-0.4-0.4-0.7-0.7-0.8H81c-0.4,0.1-0.6,0.4-0.7,0.8c0.1,0.4,0.1,0.6,0.1,0.8
		c-1.1,2.5-2.9,5.5-5.3,8.8c0.1,0.2,0.1,0.4,0.1,0.6H76C76.7,42.9,78,40.9,80,37.6z"/>
	<path class="st0" d="M110.9,47.8c-4.1,6.5-6.2,9.8-6.3,9.8c0-0.8,0.5-3.4,1.5-7.9c-0.3-0.4-0.5-0.6-0.6-0.6h-0.2
		c-1.6,3-3.2,4.4-4.8,4.4h-0.2c-0.6-0.3-1-0.8-1-1.5v-0.6c0.7-3.1,2.1-4.6,4.2-4.6h0.6c0.8,1.3,1.2,1.9,1.3,1.9
		c0.2,0,0.4-0.3,0.6-0.8c-0.5-1.5-1.3-2.3-2.3-2.3c-1.9,0-3.4,1-4.4,2.9c-2.3,3.1-3.9,4.7-4.9,4.7h-0.4v-1.2c0-0.6,0.2-2,0.6-4
		c0-0.5-0.3-1-1-1.3h-0.6c-1,0-2.4,1.2-4.2,3.7h-0.6c0-0.4,0.1-1.2,0.4-2.3c0-0.4-0.1-0.6-0.4-0.6h-0.4c-0.1,0-0.3,0.3-0.4,0.8
		c-2.3,1.5-3.9,2.3-4.9,2.3h-0.2C82.1,48.2,81,47,79.1,47c-1.9,0-3.2,1.9-3.8,5.8c0,1.8,0.8,2.9,2.5,3.3c1.3,0,2.6-1.2,3.8-3.5
		c2.4-0.9,4.2-1.7,5.3-2.4c-0.3,1.1-0.6,2.5-1,4.4c0,0.3,0.1,0.4,0.4,0.4h0.4c2.8-3.7,4.8-6,6-6.7h0.6c-0.4,2.5-0.6,3.9-0.6,4.4
		c0,1,0.4,1.7,1.2,2.1h0.8c1.2-0.3,2.4-1.3,3.6-2.7c0.3,1.9,1.1,2.8,2.5,2.8c0.8,0,1.8-0.5,3.1-1.5h0.4c0,0.5-0.6,3.4-1.7,8.5
		C95.4,73.2,91.9,81,91.9,85.1c0,1.2,0.4,2,1.3,2.3c3.1,0,6.3-7.6,9.6-22.7c0-1.7,2.9-7,8.7-16.2V48C111.3,48,111.1,47.9,110.9,47.8
		z M78,54.5h-0.6c-0.4-0.2-0.6-0.7-0.7-1.5c-0.1-0.8,0.1-1.8,0.7-3c1.4,1.1,2.4,1.7,3.1,1.9C79.9,53.6,79.1,54.5,78,54.5z M81,50.6
		c-1.3,0-2.1-0.6-2.3-1.7v-0.4c1.1-0.4,1.9,0.1,2.3,1.5V50.6z M101.1,66.8c0,0.5-0.5,2.8-1.5,6.7c-2.2,7.8-4.2,12-5.8,12.7h-0.6
		l-0.2-1c0-4.1,2.6-10.4,7.9-18.8h0.2V66.8z"/>
	<path class="st0" d="M84.6,34.1c0.2,0.1,0.4,0.1,0.6,0.1c0.2,0,0.5-0.2,0.9-0.6l3.4-3c0.2-0.2,0.4-0.3,0.5-0.4
		c0.2-0.1,0.3-0.2,0.3-0.4c0-0.1,0.1-0.3,0-0.4c0-0.2-0.1-0.3-0.1-0.5c-0.1-0.2-0.1-0.3-0.2-0.4c-0.1-0.1-0.2-0.2-0.2-0.2
		c-0.2-0.1-0.4-0.1-0.7,0c-0.3,0-0.5,0.1-0.8,0.2c-0.2,0.1-0.4,0.3-0.7,0.7c-0.4,0.6-0.8,1-1.1,1.4c-0.3,0.4-0.5,0.7-0.8,1
		c-0.2,0.3-0.4,0.5-0.7,0.8c-0.2,0.2-0.4,0.5-0.7,0.7c-0.1,0.1-0.2,0.2-0.3,0.3c-0.1,0.1-0.2,0.2-0.2,0.3c0,0.1,0,0.1,0.1,0.2
		C84.2,33.9,84.3,34,84.6,34.1z"/>
</g>
</svg>
